<svg width="154" height="20" viewBox="0 0 154 20" fill="none" xmlns="http://www.w3.org/2000/svg">
<g clip-path="url(#clip0_114_726)">
<path d="M1.66189 7.45555L5.03729 13.587H8.93912L12.2526 7.45555H13.9145V6.35106H8.91848V7.45555H10.3636L7.94818 11.9251L5.50179 7.45555H7.25658V6.35106H0V7.45555H1.66189Z" fill="black"/>
<path d="M44.6336 7.45555V6.35106H51.3225V7.45555H49.6503V12.4619H51.1986C52.6334 12.4619 53.5624 11.5225 53.5624 10.2322H54.6669V13.587H44.6233V12.4619H46.3058V7.45555H44.6336Z" fill="black"/>
<path d="M28.4174 6.19623C25.0626 6.19623 23.2769 7.86844 23.2769 9.97419C23.2769 12.1006 24.9904 13.8038 28.438 13.8038C31.8857 13.8038 33.5785 12.1006 33.5785 9.97419C33.5785 7.86844 31.7721 6.19623 28.4174 6.19623ZM28.3864 12.658C27.158 12.6373 26.6213 11.2748 26.6419 9.9329C26.6626 8.53939 27.3335 7.32136 28.4793 7.342C29.6251 7.36265 30.2341 8.60133 30.2134 9.99484C30.1825 11.3058 29.6457 12.6786 28.3864 12.658Z" fill="black"/>
<path d="M66.0834 7.45555L69.4485 13.587H73.3606L76.6741 7.45555H78.336V6.35106H73.34V7.45555H74.7851L72.3697 11.9251L69.9233 7.45555H71.6781V6.35106H64.4215V7.45555H66.0834Z" fill="black"/>
<path d="M92.8389 6.19623C89.4841 6.19623 87.6984 7.86844 87.6984 9.97419C87.6984 12.1006 89.4119 13.8038 92.8595 13.8038C96.3072 13.8038 98 12.1006 98 9.97419C98 7.86844 96.204 6.19623 92.8389 6.19623ZM92.7976 12.658C91.5692 12.6373 91.0325 11.2748 91.0531 9.9329C91.0738 8.53939 91.7447 7.32136 92.8905 7.342C94.0363 7.36265 94.6453 8.60133 94.6246 9.99484C94.604 11.3058 94.0672 12.6786 92.7976 12.658Z" fill="black"/>
</g>
<path d="M131.212 12.55C130.913 13.4087 130.428 14.0667 129.756 14.524C129.093 14.9813 128.281 15.21 127.32 15.21C126.452 15.21 125.682 15.0093 125.01 14.608C124.347 14.1973 123.825 13.6233 123.442 12.886C123.069 12.1393 122.882 11.2573 122.882 10.24C122.882 9.39067 123.008 8.65333 123.26 8.028C123.521 7.39333 123.867 6.87067 124.296 6.46C124.725 6.04933 125.201 5.746 125.724 5.55C126.247 5.34467 126.779 5.242 127.32 5.242C128.179 5.242 128.939 5.46133 129.602 5.9C130.274 6.32933 130.769 6.94067 131.086 7.734L129.994 8.168C129.761 7.58 129.401 7.12267 128.916 6.796C128.44 6.46933 127.899 6.306 127.292 6.306C126.723 6.306 126.2 6.45533 125.724 6.754C125.248 7.05267 124.865 7.49133 124.576 8.07C124.296 8.64867 124.156 9.36733 124.156 10.226C124.156 11.01 124.282 11.696 124.534 12.284C124.795 12.8627 125.164 13.3153 125.64 13.642C126.125 13.9687 126.695 14.132 127.348 14.132C128.039 14.132 128.622 13.9687 129.098 13.642C129.574 13.306 129.919 12.83 130.134 12.214L131.212 12.55ZM132.855 5.06H133.975V7.93C133.975 8.266 133.97 8.53667 133.961 8.742C133.952 8.938 133.942 9.10133 133.933 9.232H133.947C134.171 8.84933 134.474 8.56467 134.857 8.378C135.24 8.182 135.66 8.084 136.117 8.084C136.892 8.084 137.494 8.30333 137.923 8.742C138.362 9.18067 138.581 9.862 138.581 10.786V15H137.461V11.22C137.461 10.9027 137.447 10.6367 137.419 10.422C137.4 10.198 137.34 9.98333 137.237 9.778C137.134 9.56333 136.976 9.386 136.761 9.246C136.546 9.106 136.252 9.036 135.879 9.036C135.618 9.036 135.375 9.08267 135.151 9.176C134.936 9.26 134.764 9.36733 134.633 9.498C134.372 9.75933 134.194 10.0767 134.101 10.45C134.017 10.8233 133.975 11.262 133.975 11.766V15H132.855V5.06ZM140.785 15V8.266H141.905V15H140.785ZM140.771 7.076V5.452H141.919V7.076H140.771ZM144.203 5.06H145.323V15H144.203V5.06ZM153.333 13.796C152.959 14.2813 152.535 14.636 152.059 14.86C151.592 15.0747 151.051 15.182 150.435 15.182C149.735 15.182 149.137 15.0373 148.643 14.748C148.148 14.4493 147.77 14.034 147.509 13.502C147.257 12.97 147.131 12.354 147.131 11.654C147.131 10.9447 147.257 10.324 147.509 9.792C147.77 9.26 148.139 8.84467 148.615 8.546C149.1 8.238 149.674 8.084 150.337 8.084C150.878 8.084 151.34 8.182 151.723 8.378C152.115 8.56467 152.427 8.81667 152.661 9.134C152.903 9.442 153.076 9.778 153.179 10.142C153.291 10.4967 153.347 10.842 153.347 11.178C153.347 11.2993 153.342 11.4253 153.333 11.556C153.323 11.6773 153.309 11.7893 153.291 11.892H148.335C148.353 12.6293 148.563 13.208 148.965 13.628C149.366 14.0387 149.875 14.244 150.491 14.244C150.957 14.244 151.363 14.16 151.709 13.992C152.063 13.8147 152.376 13.5347 152.647 13.152L153.333 13.796ZM152.143 11.038C152.143 10.674 152.068 10.338 151.919 10.03C151.779 9.722 151.569 9.47467 151.289 9.288C151.018 9.10133 150.687 9.008 150.295 9.008C149.753 9.008 149.31 9.18533 148.965 9.54C148.629 9.89467 148.428 10.394 148.363 11.038H152.143Z" fill="black"/>
<defs>
<clipPath id="clip0_114_726">
<rect width="98" height="7.60754" fill="white" transform="translate(0 6.19623)"/>
</clipPath>
</defs>
</svg>
