<svg width="150" height="150" viewBox="0 0 150 150" fill="none" xmlns="http://www.w3.org/2000/svg">
<path fill-rule="evenodd" clip-rule="evenodd" d="M35.0372 12.4878C29.5185 12.4878 25.0435 16.9628 25.0435 22.4815V131.25H21.8872C21.0584 131.25 20.2635 131.58 19.6775 132.166C19.0914 132.752 18.7622 133.547 18.7622 134.375C18.7622 135.204 19.0914 135.999 19.6775 136.585C20.2635 137.171 21.0584 137.5 21.8872 137.5H90.6247C91.4535 137.5 92.2484 137.171 92.8344 136.585C93.4205 135.999 93.7497 135.204 93.7497 134.375C93.7497 133.547 93.4205 132.752 92.8344 132.166C92.2484 131.58 91.4535 131.25 90.6247 131.25H87.531V68.969C91.006 69.9065 93.7435 73.269 93.7435 77.544V106.469C93.7435 111.182 95.3872 115.838 98.7122 119.332C102.068 122.869 106.943 125.032 113.006 125.032C119.131 125.032 124.05 122.675 127.262 118.819C130.437 115.007 131.731 109.969 131.137 104.907C130.225 97.0003 127.3 72.1378 125.187 56.9503C132.35 55.344 137.443 48.6628 137.443 41.2253V34.369C137.443 33.5402 137.114 32.7454 136.528 32.1593C135.942 31.5733 135.147 31.244 134.318 31.244H131.131V21.8753C131.131 21.0465 130.802 20.2516 130.216 19.6656C129.63 19.0795 128.835 18.7503 128.006 18.7503C127.177 18.7503 126.382 19.0795 125.796 19.6656C125.21 20.2516 124.881 21.0465 124.881 21.8753V31.244H118.631V21.8753C118.631 21.0465 118.302 20.2516 117.716 19.6656C117.13 19.0795 116.335 18.7503 115.506 18.7503C114.677 18.7503 113.882 19.0795 113.296 19.6656C112.71 20.2516 112.381 21.0465 112.381 21.8753V31.244H109.375C108.546 31.244 107.751 31.5733 107.165 32.1593C106.579 32.7454 106.25 33.5402 106.25 34.369V41.2253C106.25 48.7878 111.525 55.5753 118.887 57.0315C120.993 72.0315 123.993 97.5628 124.931 105.625C125.35 109.194 124.412 112.475 122.456 114.825C120.543 117.125 117.443 118.782 113.006 118.782C108.506 118.782 105.318 117.219 103.243 115.032C101.137 112.813 99.9935 109.75 99.9935 106.469V77.544C99.9935 70.0503 94.6872 63.6065 87.531 62.594V22.4815C87.531 16.9628 83.056 12.4878 77.531 12.4878H35.0372ZM81.281 131.25H31.2935V22.4815C31.2935 20.419 32.9747 18.7378 35.0435 18.7378H77.5372C79.5997 18.7378 81.281 20.4128 81.281 22.4815V131.25ZM115.5 37.5003L115.262 37.494H112.5V41.2253C112.5 46.644 116.75 51.069 121.85 51.069C126.95 51.069 131.193 46.644 131.193 41.2253V37.494H115.75L115.5 37.5003ZM66.0497 49.294C66.2158 49.3739 66.3483 49.51 66.4238 49.6781C66.4992 49.8462 66.5129 50.0356 66.4622 50.2128L60.7997 70.0503H69.881C70.025 70.0497 70.1664 70.0889 70.2896 70.1636C70.4127 70.2384 70.5128 70.3457 70.5788 70.4738C70.6448 70.6018 70.674 70.7456 70.6634 70.8893C70.6527 71.0329 70.6026 71.1709 70.5185 71.2878L49.681 100.457C49.5741 100.607 49.4175 100.714 49.2389 100.76C49.0603 100.806 48.8712 100.788 48.705 100.708C48.5389 100.628 48.4065 100.491 48.3311 100.323C48.2558 100.155 48.2425 99.965 48.2935 99.7878L53.9622 79.9503H44.881C44.7369 79.9509 44.5955 79.9117 44.4723 79.8369C44.3492 79.7622 44.2491 79.6549 44.1831 79.5268C44.1172 79.3988 44.0879 79.255 44.0985 79.1113C44.1092 78.9676 44.1593 78.8297 44.2435 78.7128L65.0747 49.544C65.1817 49.3941 65.3382 49.2868 65.5166 49.2411C65.695 49.1954 65.8838 49.2141 66.0497 49.294Z" fill="#292929"/>
</svg>
