<svg width="150" height="150" viewBox="0 0 150 150" fill="none" xmlns="http://www.w3.org/2000/svg">
<path fill-rule="evenodd" clip-rule="evenodd" d="M77.9998 24.8286C43.7241 24.8286 15.2583 52.9368 15.2583 87.7395C15.2583 88.7852 15.2855 89.8225 15.3399 90.8515V90.8829C15.9736 103.105 20.2776 114.449 26.809 123.866C27.0605 124.227 27.3851 124.531 27.7618 124.759C28.1385 124.987 28.5588 125.132 28.9955 125.187C29.4322 125.241 29.8755 125.203 30.2965 125.075C30.7175 124.947 31.1069 124.732 31.4393 124.443L42.4316 114.925C43.0606 114.38 43.4474 113.608 43.5068 112.778C43.5662 111.948 43.2935 111.128 42.7485 110.499C42.2035 109.87 41.431 109.483 40.6009 109.424C39.7708 109.364 38.9511 109.637 38.3221 110.182L30.0465 117.347C25.6472 110.2 22.8595 102.179 21.8775 93.8443H37.2178C38.0498 93.8443 38.8478 93.5138 39.4361 92.9254C40.0244 92.3371 40.3549 91.5392 40.3549 90.7072C40.3549 89.8752 40.0244 89.0773 39.4361 88.4889C38.8478 87.9006 38.0498 87.5701 37.2178 87.5701H21.5325C21.5753 73.6976 26.7232 60.3263 35.9944 50.0068L47.5514 61.5512C48.1474 62.099 48.9321 62.3952 49.7414 62.3779C50.5507 62.3605 51.322 62.031 51.894 61.4582C52.466 60.8854 52.7945 60.1136 52.8106 59.3043C52.8268 58.4949 52.5295 57.7106 51.9809 57.1154L40.4302 45.571C49.9384 37.0013 62.0839 31.9289 74.8627 31.1906V46.7881C74.8627 47.6201 75.1932 48.4181 75.7816 49.0064C76.3699 49.5947 77.1678 49.9252 77.9998 49.9252C78.8318 49.9252 79.6297 49.5947 80.2181 49.0064C80.8064 48.4181 81.1369 47.6201 81.1369 46.7881V31.1843C93.9223 31.8718 106.089 36.908 115.62 45.458L104.012 57.1217C103.702 57.4087 103.453 57.7556 103.28 58.1415C103.106 58.5273 103.013 58.9442 103.005 59.367C102.998 59.7898 103.075 60.2099 103.234 60.6019C103.392 60.9939 103.629 61.3498 103.928 61.6482C104.228 61.9466 104.585 62.1813 104.978 62.3383C105.37 62.4952 105.791 62.5712 106.213 62.5615C106.636 62.5519 107.053 62.4568 107.438 62.2821C107.823 62.1074 108.169 61.8567 108.455 61.5449L120.055 49.9001C129.333 60.2545 134.464 73.6675 134.467 87.5701H131.33L131.324 87.3694C131.271 86.5402 130.891 85.7659 130.267 85.2166C129.644 84.6673 128.828 84.3878 127.999 84.4393L83.3266 87.225C82.2537 85.4996 80.3401 84.433 77.9998 84.433C74.342 84.433 71.7257 87.0431 71.7257 90.7072C71.7257 94.365 74.342 96.9813 77.9998 96.9813C80.6349 96.9813 82.7305 95.6199 83.6967 93.4929L115.745 91.4852C115.918 92.1596 116.31 92.7575 116.86 93.1846C117.409 93.6117 118.086 93.8437 118.782 93.8443H134.122C133.14 102.179 130.352 110.2 125.953 117.347L117.671 110.182C117.362 109.899 116.999 109.681 116.604 109.541C116.209 109.401 115.79 109.341 115.371 109.366C114.953 109.39 114.543 109.499 114.167 109.684C113.791 109.869 113.456 110.128 113.182 110.445C112.908 110.762 112.7 111.131 112.571 111.53C112.441 111.929 112.393 112.349 112.429 112.767C112.465 113.184 112.584 113.591 112.78 113.961C112.976 114.332 113.244 114.66 113.568 114.925L124.56 124.443C124.893 124.732 125.282 124.947 125.703 125.075C126.124 125.203 126.567 125.241 127.004 125.187C127.441 125.132 127.861 124.987 128.238 124.759C128.615 124.531 128.939 124.227 129.191 123.866C135.722 114.449 140.026 103.105 140.66 90.8829V90.8515C140.713 89.815 140.74 88.7774 140.741 87.7395C140.741 52.9368 112.715 24.8286 77.9998 24.8286Z" fill="#292929"/>
</svg>
