<svg width="150" height="150" viewBox="0 0 150 150" fill="none" xmlns="http://www.w3.org/2000/svg">
<path fill-rule="evenodd" clip-rule="evenodd" d="M107.412 22.2629C100.754 22.2629 95.72 27.7268 95.72 34.1859C95.72 36.2597 96.2464 38.1987 97.171 39.8809H93.6654C92.9244 39.8811 92.2063 40.1375 91.6329 40.6068C91.0595 41.0761 90.666 41.7292 90.5193 42.4555L84.0538 74.4491C83.9597 74.9151 83.9703 75.3962 84.0847 75.8577C84.1992 76.3191 84.4147 76.7494 84.7158 77.1174C85.0168 77.4854 85.3958 77.7819 85.8254 77.9856C86.255 78.1892 86.7245 78.2949 87.1999 78.295H128.439C128.915 78.2951 129.385 78.1893 129.815 77.9853C130.246 77.7812 130.625 77.4841 130.926 77.1153C131.227 76.7466 131.443 76.3155 131.557 75.8532C131.671 75.391 131.68 74.9092 131.585 74.4427L125.113 42.462C124.966 41.7357 124.573 41.0825 124 40.6132C123.426 40.1439 122.708 39.8875 121.967 39.8873H117.845C118.831 38.074 119.329 36.0357 119.291 33.972C119.253 31.9083 118.68 29.8898 117.628 28.1141C116.575 26.3384 115.08 24.8663 113.288 23.8417C111.497 22.8172 109.469 22.2754 107.405 22.2694M112.876 34.1923C112.876 37.1843 110.487 39.5856 107.508 39.6433C106.075 39.6214 104.708 39.0368 103.703 38.0157C102.697 36.9946 102.134 35.6189 102.134 34.1859C102.134 31.0591 104.51 28.6899 107.405 28.6899C110.404 28.6899 112.876 31.1554 112.876 34.1923ZM91.1164 71.8809L96.285 46.3079H119.335L124.503 71.8809H91.1164ZM43.6558 46.9499C40.9463 46.9499 37.2866 47.3608 35.0266 48.1056C34.147 48.3945 32.5932 48.9595 31.0587 49.5181L30.6093 49.6786C28.8693 50.3079 27.2577 50.8857 26.4744 51.1297C23.0972 52.1955 22.0764 55.0719 21.7489 56.6578C21.6012 57.4026 20.6125 63.4571 19.7907 68.5358C19.277 71.7332 18.8147 74.5454 18.6671 75.4186C18.2273 78.5458 17.9978 81.6989 17.9801 84.8568C17.9801 86.0061 17.9801 92.5871 17.9672 98.8921L17.9608 107.406V111.2C17.9608 112.052 18.299 112.868 18.9011 113.47C19.5031 114.072 20.3197 114.411 21.1711 114.411H36.1695C37.293 117.101 39.2 119.374 41.6012 120.953H17.0106C16.1591 120.953 15.3426 121.291 14.7406 121.893C14.1385 122.495 13.8003 123.312 13.8003 124.163C13.8003 125.015 14.1385 125.831 14.7406 126.433C15.3426 127.035 16.1591 127.374 17.0106 127.374H138.994C139.846 127.374 140.662 127.035 141.264 126.433C141.866 125.831 142.205 125.015 142.205 124.163C142.205 123.312 141.866 122.495 141.264 121.893C140.662 121.291 139.846 120.953 138.994 120.953H126.025C128.638 119.24 130.628 116.729 131.699 113.795C132.771 110.86 132.866 107.658 131.972 104.664C131.077 101.671 129.241 99.0457 126.735 97.1798C124.229 95.3139 121.188 94.3066 118.063 94.3078C114.939 94.3066 111.898 95.3139 109.392 97.1798C106.886 99.0457 105.049 101.671 104.155 104.664C103.26 107.658 103.356 110.86 104.428 113.795C105.499 116.729 107.489 119.24 110.102 120.953H57.5306C59.1583 119.885 60.5544 118.5 61.6357 116.88C62.7169 115.261 63.4613 113.441 63.8243 111.528C64.1874 109.615 64.1617 107.649 63.7489 105.746C63.3361 103.843 62.5446 102.043 61.4214 100.452H64.7023C65.5538 100.452 66.3703 100.114 66.9723 99.512C67.5744 98.91 67.9126 98.0934 67.9126 97.242V50.1602C67.9126 49.3088 67.5744 48.4922 66.9723 47.8902C66.3703 47.2881 65.5538 46.9499 64.7023 46.9499H43.6558ZM34.6414 107.996H24.3813V107.419L24.3878 98.8985L24.4006 84.8568C24.4006 82.6545 24.6253 78.6674 24.9913 76.5037L25.1454 75.6176L46.9367 71.1875C48.0475 70.8921 48.9849 70.3143 48.9849 69.0815V61.9226C48.9882 61.6497 48.9377 61.3789 48.8363 61.1255C48.7348 60.8722 48.5843 60.6414 48.3934 60.4464C48.2025 60.2513 47.975 60.0959 47.7239 59.9889C47.4729 59.882 47.2032 59.8256 46.9303 59.8231H27.7264L27.9961 58.2372L28.0282 58.0382L28.0411 57.974V57.9611C28.0838 57.7294 28.1686 57.5074 28.2915 57.3062L28.3171 57.2934L28.407 57.2549C29.3508 56.9595 31.1293 56.3175 32.8051 55.714L33.2096 55.5663C34.7955 54.9884 36.2593 54.462 37.0427 54.1987C38.4102 53.7493 41.3251 53.364 43.6558 53.364H61.4856V94.0317H49.1454C41.3187 94.0317 34.9303 100.24 34.6414 107.996ZM80.2465 74.2244C80.2465 73.373 79.9082 72.5564 79.3062 71.9544C78.7042 71.3523 77.8876 71.0141 77.0362 71.0141C76.1848 71.0141 75.3682 71.3523 74.7662 71.9544C74.1641 72.5564 73.8259 73.373 73.8259 74.2244V85.7813C73.8259 86.6328 74.1641 87.4493 74.7662 88.0513C75.3682 88.6534 76.1848 88.9916 77.0362 88.9916H134.802C135.653 88.9916 136.47 88.6534 137.072 88.0513C137.674 87.4493 138.012 86.6328 138.012 85.7813C138.012 84.9299 137.674 84.1134 137.072 83.5113C136.47 82.9093 135.653 82.5711 134.802 82.5711H80.2465V74.2244ZM41.4664 108.818C41.5258 106.711 42.4044 104.711 43.9157 103.241C45.427 101.772 47.4517 100.95 49.5595 100.95C51.6673 100.95 53.692 101.772 55.2033 103.241C56.7145 104.711 57.5932 106.711 57.6526 108.818C57.5693 110.908 56.6806 112.885 55.1725 114.334C53.6645 115.783 51.6542 116.592 49.5627 116.592C47.4712 116.592 45.4609 115.783 43.9529 114.334C42.4448 112.885 41.5561 110.908 41.4728 108.818M109.967 108.818C109.966 107.217 110.439 105.651 111.328 104.319C112.217 102.987 113.48 101.948 114.959 101.334C116.438 100.72 118.066 100.559 119.637 100.87C121.207 101.181 122.651 101.951 123.784 103.082C124.917 104.214 125.689 105.656 126.003 107.226C126.317 108.796 126.158 110.424 125.546 111.904C124.934 113.384 123.898 114.649 122.567 115.54C121.236 116.431 119.671 116.907 118.07 116.908C115.924 116.905 113.867 116.052 112.349 114.536C110.83 113.02 109.974 110.964 109.967 108.818Z" fill="#292929"/>
</svg>
